<?xml version="1.0" standalone="no"?>
<!DOCTYPE svg PUBLIC "-//W3C//DTD SVG 20010904//EN"
 "http://www.w3.org/TR/2001/REC-SVG-20010904/DTD/svg10.dtd">
<svg version="1.0" xmlns="http://www.w3.org/2000/svg"
 viewBox="0 0 1254 1254"
 preserveAspectRatio="xMidYMid meet">
<g transform="translate(0.000000,1254.000000) scale(0.100000,-0.100000)"
fill="currentColor" stroke="none">
<path d="M1695 11596 c-82 -20 -146 -57 -210 -121 -58 -59 -95 -115 -480 -734
-102 -163 -135 -236 -135 -297 0 -23 74 -286 297 -1049 69 -236 151 -522 183
-635 60 -212 152 -532 265 -920 36 -124 108 -375 161 -558 l96 -334 -32 -86
c-30 -79 -155 -402 -310 -797 -33 -82 -98 -249 -145 -370 -48 -121 -134 -339
-192 -485 -58 -146 -158 -400 -223 -565 -65 -165 -191 -487 -281 -715 l-164
-415 -3 -1012 c-3 -1115 -4 -1088 59 -1220 46 -96 160 -209 259 -256 41 -19
99 -40 128 -46 38 -8 1535 -11 5315 -11 l5262 0 82 29 c105 36 167 77 243 157
65 70 98 127 127 219 17 57 18 119 18 1095 l0 1035 -49 125 c-27 69 -86 220
-131 335 -45 116 -122 311 -170 435 -48 124 -152 387 -230 585 -290 731 -469
1183 -515 1305 -26 69 -93 242 -149 384 -55 143 -101 267 -101 275 0 15 81
298 415 1456 385 1333 489 1692 540 1860 48 158 50 228 8 311 -16 33 -54 97
-85 144 -30 47 -96 150 -145 230 -307 496 -338 538 -436 598 -110 66 5 62
-1878 60 l-1706 -3 -48 -30 c-54 -34 -84 -82 -136 -222 -53 -144 -141 -228
-273 -258 -59 -14 -151 -16 -695 -13 l-626 3 -57 23 c-66 27 -148 97 -183 156
-13 22 -38 80 -55 128 -38 106 -76 160 -132 190 l-43 23 -1695 2 c-1307 1
-1706 -1 -1745 -11z m3367 -235 c14 -12 41 -59 62 -111 79 -190 212 -316 391
-373 69 -22 77 -22 745 -22 627 0 679 1 735 18 101 31 195 87 262 155 72 72
100 117 149 234 19 46 45 91 57 100 21 16 124 18 1667 18 1118 0 1657 -3 1683
-11 57 -15 100 -59 172 -177 37 -59 88 -141 115 -182 27 -41 64 -100 83 -130
19 -30 78 -125 132 -210 54 -85 100 -161 102 -167 4 -10 -1029 -13 -5146 -13
-2833 0 -5151 2 -5151 5 0 3 52 90 116 193 252 404 378 598 408 630 63 65 -49
61 1752 62 1610 0 1642 0 1666 -19z m-3430 -1131 c9 -43 195 -1018 319 -1680
22 -118 65 -341 94 -495 30 -154 64 -335 76 -402 l22 -122 -58 -136 c-33 -75
-62 -138 -65 -140 -6 -4 -50 141 -206 685 -52 184 -124 434 -159 555 -35 121
-70 245 -78 275 -18 69 -178 623 -287 995 -114 389 -139 478 -140 490 0 6 86
10 237 10 l237 0 8 -35z m9053 -8 c-4 -26 -67 -364 -141 -752 -74 -388 -151
-788 -170 -890 -19 -102 -63 -338 -98 -525 -36 -187 -67 -359 -71 -382 -7 -43
-7 -43 -48 -43 -451 -4 -7807 -3 -7811 1 -3 2 -20 88 -40 189 -19 102 -70 379
-115 615 -44 237 -108 572 -141 745 -33 173 -81 425 -106 560 -25 135 -56 301
-69 370 -14 69 -25 130 -25 137 0 7 19 13 48 16 26 2 2015 4 4421 5 l4373 1
-7 -47z m705 37 c0 -7 -29 -109 -64 -228 -35 -119 -121 -414 -191 -656 -70
-242 -146 -505 -169 -585 -24 -80 -132 -458 -242 -842 -109 -383 -202 -694
-205 -692 -4 2 -34 66 -67 141 -56 127 -60 141 -52 178 5 22 30 146 54 275 25
129 83 435 130 680 142 742 194 1020 262 1379 35 189 67 347 70 352 8 14 474
11 474 -2z m-5640 -2853 c0 -2 -36 -16 -81 -31 -115 -39 -273 -121 -392 -206
-181 -129 -385 -356 -467 -519 -12 -25 -24 -47 -26 -49 -2 -2 -47 42 -100 98
-295 312 -686 493 -1125 520 -486 31 -924 -122 -1276 -445 l-89 -82 -37 130
-38 129 62 137 c34 75 81 179 105 230 l43 92 1710 0 c941 0 1711 -2 1711 -4z
m4566 -229 l103 -228 -20 -67 c-11 -37 -29 -95 -40 -129 l-21 -63 -87 81
c-119 110 -228 186 -370 258 -300 153 -570 210 -899 190 -246 -15 -463 -73
-674 -179 -212 -106 -390 -241 -507 -384 l-55 -66 -36 67 c-92 176 -310 410
-497 536 -102 69 -316 176 -391 196 -23 7 -42 14 -42 16 0 3 772 4 1717 3
l1716 -3 103 -228z m-3751 79 c427 -88 756 -321 973 -691 49 -84 92 -189 128
-314 25 -88 25 -93 9 -112 -25 -27 -40 -24 -101 16 -73 49 -124 65 -204 65
-52 0 -78 -6 -116 -25 -70 -36 -129 -106 -161 -189 -32 -86 -60 -116 -107
-116 -26 0 -41 8 -64 35 -34 37 -39 59 -45 178 -10 192 -168 358 -402 422 -84
23 -242 31 -329 15 -281 -49 -482 -238 -494 -464 -4 -88 -21 -143 -83 -272
-43 -92 -78 -121 -128 -109 -40 10 -58 32 -87 107 -47 124 -111 185 -217 208
-54 11 -113 2 -183 -30 -86 -40 -134 -18 -134 60 0 109 58 312 129 454 74 146
138 233 261 356 238 238 495 366 836 420 92 14 426 5 519 -14z m-2917 -236
c357 -45 721 -239 936 -499 110 -134 110 -134 92 -189 -27 -83 -56 -247 -62
-355 l-7 -104 -54 -6 c-104 -11 -185 -82 -220 -194 -29 -91 -81 -129 -143
-103 -41 17 -63 50 -112 172 -37 90 -42 113 -43 183 -1 122 -30 192 -119 280
-126 126 -278 185 -476 185 -262 0 -484 -118 -577 -307 -34 -69 -37 -83 -39
-168 -3 -139 -49 -271 -104 -300 -50 -26 -68 -19 -139 54 -55 56 -78 72 -121
85 -30 9 -65 16 -80 16 -50 0 -125 -30 -175 -70 -123 -98 -174 -106 -214 -32
-27 52 27 319 99 489 55 129 89 188 177 304 213 282 548 485 910 548 123 22
342 27 471 11z m5672 -5 c159 -26 277 -62 415 -129 181 -87 271 -150 406 -285
166 -165 278 -345 343 -549 33 -105 34 -155 4 -176 -34 -24 -60 -20 -139 22
-64 33 -80 37 -143 37 -123 -1 -209 -62 -266 -190 -39 -85 -63 -113 -107 -121
-46 -9 -79 16 -109 81 -21 44 -23 57 -13 81 16 42 14 142 -4 205 -32 108 -135
219 -261 278 -108 52 -177 65 -331 65 -125 0 -149 -3 -220 -27 -112 -37 -197
-91 -270 -169 -116 -126 -143 -269 -78 -420 14 -34 14 -39 -1 -63 -20 -31 -58
-41 -95 -25 -21 8 -36 28 -55 69 -64 142 -140 196 -265 189 -55 -3 -82 -11
-139 -41 -39 -20 -74 -37 -77 -37 -3 0 -5 47 -5 104 0 109 -25 281 -59 399
l-19 69 59 78 c221 294 628 518 1019 563 92 10 322 6 410 -8z m-7301 -453 l22
-68 -65 -125 c-220 -424 -253 -892 -93 -1319 l36 -94 -82 -86 c-267 -276 -414
-589 -448 -954 -11 -111 -3 -300 18 -398 5 -25 3 -28 -23 -28 -16 0 -141 -2
-279 -4 -137 -2 -273 -1 -301 1 l-51 5 18 49 c18 46 79 203 204 519 29 74 92
234 140 355 47 121 98 247 111 280 14 33 66 164 114 290 49 127 128 329 175
450 48 121 95 243 105 270 10 28 63 163 117 300 55 138 133 334 173 438 41
103 77 187 80 187 4 0 16 -31 29 -68z m8588 -64 c29 -73 82 -209 118 -303 36
-93 108 -278 160 -410 119 -303 384 -979 520 -1325 57 -146 143 -364 190 -485
126 -320 185 -478 179 -484 -6 -6 -672 -6 -679 0 -2 2 3 47 11 99 45 303 -6
610 -149 893 -74 145 -146 246 -270 374 l-88 91 19 39 c29 57 88 246 109 348
26 135 24 435 -4 568 -35 158 -91 318 -159 454 l-65 127 23 73 c12 40 25 73
28 73 3 0 29 -60 57 -132z m-4193 -153 c170 -44 276 -144 276 -259 0 -64 -30
-118 -93 -165 -165 -125 -418 -147 -604 -53 -305 155 -111 487 287 491 42 1
102 -6 134 -14z m-2835 -160 c213 -51 319 -208 228 -340 -34 -50 -131 -117
-196 -135 -229 -65 -490 -3 -568 135 -75 132 46 288 262 341 70 17 198 16 274
-1z m5651 -46 c122 -19 247 -96 284 -173 56 -118 -36 -254 -209 -310 -176 -57
-383 -32 -508 60 -115 84 -126 192 -31 294 105 112 275 160 464 129z m-1754
-148 c75 -49 121 -63 186 -60 l53 3 3 -44 c7 -94 -26 -293 -71 -425 -38 -109
-164 -345 -185 -345 -2 0 -34 22 -71 49 -350 259 -762 384 -1206 368 -214 -9
-363 -36 -565 -105 -166 -57 -371 -167 -501 -268 -30 -24 -58 -44 -61 -44 -9
0 -74 102 -107 168 -73 144 -125 314 -133 436 l-3 50 56 -3 c39 -2 74 5 123
23 38 14 81 26 96 26 29 0 80 -34 80 -53 0 -7 11 -38 24 -69 53 -128 141 -191
266 -190 124 0 211 66 276 208 l34 74 52 -40 c70 -53 183 -99 288 -117 101
-18 263 -12 354 13 77 20 188 76 249 125 l48 38 58 -45 c47 -37 71 -47 122
-56 148 -25 262 53 329 225 42 107 103 125 206 58z m2832 -282 c43 -26 67 -34
117 -37 35 -2 77 0 93 6 30 10 30 10 36 -37 14 -104 -30 -365 -85 -504 -11
-28 -22 -53 -24 -55 -2 -2 -45 22 -97 53 -220 132 -431 213 -668 257 -96 18
-153 22 -350 22 -216 0 -245 -2 -365 -27 -310 -64 -587 -189 -809 -365 -80
-63 -200 -181 -267 -260 l-44 -53 -62 93 c-66 98 -123 206 -123 233 0 8 24 57
53 108 83 143 135 278 171 438 5 23 13 28 50 33 24 4 73 25 109 46 73 44 124
52 149 23 9 -10 30 -48 47 -85 55 -117 145 -174 260 -166 74 6 114 23 170 74
l39 34 51 -25 c87 -44 162 -65 266 -75 177 -17 331 14 467 96 l72 42 45 -48
c68 -71 120 -94 211 -95 65 0 82 4 128 29 69 38 107 83 149 173 56 122 105
139 211 72z m-5674 -106 c40 -187 108 -359 203 -515 l35 -57 -42 -78 c-23 -43
-66 -113 -97 -157 l-55 -79 -26 34 c-56 74 -222 234 -307 298 -124 92 -171
120 -315 190 -335 160 -691 220 -1062 176 -171 -20 -257 -38 -391 -85 -149
-51 -260 -103 -389 -183 l-107 -65 -21 56 c-24 64 -70 246 -70 278 0 19 5 20
58 16 74 -5 155 25 226 83 61 49 88 65 111 65 9 0 44 -26 78 -59 86 -81 129
-101 218 -101 117 0 200 53 255 163 15 29 28 54 30 56 1 1 18 -8 36 -22 87
-67 280 -127 409 -127 75 0 214 25 286 51 32 12 91 43 132 70 41 27 75 48 76
47 0 -2 18 -37 38 -80 67 -137 167 -205 297 -201 115 4 211 77 256 196 31 81
54 107 94 107 27 0 29 -3 44 -77z m1787 -263 c466 -45 890 -275 1153 -625 111
-147 226 -405 210 -469 -16 -67 -85 -73 -189 -15 -158 87 -324 54 -419 -84
-20 -29 -50 -94 -67 -144 -43 -128 -89 -162 -154 -111 -41 32 -55 76 -55 177
0 106 -22 186 -70 257 -148 216 -483 317 -780 234 -173 -49 -320 -162 -388
-298 l-37 -76 0 -176 c-1 -194 -10 -243 -54 -293 -24 -26 -37 -32 -69 -32 -51
0 -68 16 -117 105 -48 88 -95 136 -165 169 -113 53 -235 27 -354 -77 -88 -77
-157 -82 -202 -14 -19 27 -21 42 -17 95 28 345 201 697 464 941 340 315 841
482 1310 436z m-3070 -110 c262 -26 546 -118 744 -242 179 -113 349 -271 445
-416 l49 -72 -30 -71 c-29 -69 -81 -254 -94 -334 l-6 -40 -72 0 c-119 -1 -199
-52 -267 -169 -48 -85 -115 -108 -181 -63 -23 15 -49 52 -83 117 -48 90 -50
100 -57 195 -5 84 -11 109 -37 160 -42 83 -90 136 -178 194 -124 83 -304 129
-464 117 -244 -17 -463 -144 -543 -314 -30 -62 -32 -76 -34 -186 -4 -186 -43
-288 -117 -301 -51 -10 -91 16 -128 83 -48 85 -122 155 -193 181 -50 19 -74
22 -145 19 -90 -5 -116 -15 -244 -92 -33 -20 -73 -36 -89 -36 l-30 0 6 58 c16
151 132 414 251 572 335 444 924 696 1497 640z m6196 -15 c545 -70 1012 -377
1230 -809 104 -206 160 -443 118 -502 -19 -28 -68 -48 -98 -40 -13 3 -54 28
-91 55 -79 59 -120 74 -196 73 -100 -1 -158 -38 -225 -141 -64 -99 -92 -118
-145 -99 -36 12 -51 37 -96 170 -27 77 -35 119 -37 186 -6 172 -101 307 -281
398 -109 56 -201 76 -346 76 -151 0 -241 -21 -363 -84 -182 -94 -291 -259
-285 -433 2 -63 -17 -135 -58 -217 -54 -108 -135 -106 -190 5 -56 112 -139
167 -251 167 -51 0 -81 -6 -122 -25 -30 -14 -56 -24 -58 -21 -2 2 -10 49 -18
105 -19 133 -37 207 -75 314 l-32 88 48 71 c27 39 87 111 133 160 357 379 906
571 1438 503z m-6208 -822 c154 -40 271 -151 271 -259 0 -35 -49 -120 -88
-151 -92 -74 -216 -114 -357 -116 -110 -1 -191 16 -270 55 -248 122 -210 351
77 460 102 39 245 43 367 11z m3104 -23 c66 -21 166 -80 204 -121 12 -13 32
-46 44 -73 36 -82 15 -161 -64 -237 -144 -141 -436 -178 -633 -82 -172 84
-227 222 -141 350 59 88 188 163 316 183 77 12 198 3 274 -20z m3090 1 c128
-33 217 -93 258 -172 95 -188 -157 -385 -470 -366 -220 13 -378 115 -389 251
-8 99 53 182 181 247 118 60 279 76 420 40z m-1994 -326 c89 -53 144 -64 221
-43 30 8 62 18 71 22 36 16 29 -293 -11 -448 -11 -44 -22 -82 -25 -84 -3 -3
-116 -7 -252 -8 -294 -4 -331 -8 -397 -39 -79 -38 -137 -103 -201 -225 -107
-206 -258 -331 -472 -392 -113 -32 -315 -32 -428 1 -209 61 -366 189 -464 381
-79 153 -149 219 -275 260 -27 9 -125 13 -325 14 l-286 1 -11 35 c-7 19 -15
55 -19 79 -7 42 -7 43 16 35 13 -4 50 -7 81 -7 74 1 144 33 228 105 70 59 104
73 143 59 34 -13 59 -42 93 -108 64 -123 157 -186 276 -186 123 0 221 70 270
193 l23 59 49 -31 c66 -40 155 -73 257 -94 98 -20 256 -15 354 11 78 21 208
84 268 130 l48 37 41 -37 c85 -77 186 -101 281 -65 99 37 151 103 211 272 46
127 112 147 235 73z m-5496 -159 c38 -16 64 -44 99 -106 36 -62 88 -113 145
-141 73 -36 179 -34 252 6 54 30 141 129 141 161 0 18 7 18 38 -5 133 -93 364
-145 543 -122 139 18 290 80 385 157 l32 25 36 -59 c46 -76 105 -135 164 -164
65 -32 198 -33 257 -1 50 27 114 93 150 156 31 54 71 80 118 75 l32 -3 12
-121 c6 -67 17 -150 23 -184 6 -34 9 -65 6 -68 -8 -7 -2702 -13 -2788 -5 l-66
5 -16 63 c-9 35 -19 94 -22 132 l-7 70 53 7 c70 9 139 36 213 84 34 22 69 42
77 45 29 10 91 7 123 -7z m6235 -72 c12 -8 34 -38 48 -65 13 -27 42 -67 63
-88 42 -42 131 -81 185 -81 48 0 122 25 167 56 34 23 109 120 121 156 3 7 21
0 51 -21 146 -100 277 -135 482 -128 123 4 151 8 228 35 88 31 166 73 221 119
l29 24 30 -73 c85 -204 292 -260 447 -121 28 25 62 67 75 94 48 94 97 102 189
33 33 -26 75 -52 91 -59 47 -20 129 -28 171 -16 21 6 40 8 43 6 7 -8 -31 -176
-44 -188 -9 -9 -356 -12 -1441 -12 -1261 0 -1429 2 -1425 15 3 16 30 175 37
228 3 17 10 32 17 32 7 0 30 10 52 22 22 12 51 27 65 35 33 17 71 16 98 -3z
m-2966 -566 c24 -19 53 -60 87 -128 118 -229 303 -389 544 -468 302 -100 646
-50 892 129 55 41 170 155 210 209 18 25 54 87 81 139 31 60 61 103 83 120
l34 26 2279 3 2278 2 -2 -913 -3 -912 -33 -67 c-39 -80 -102 -139 -179 -168
l-54 -20 -5258 0 c-4662 0 -5262 2 -5302 15 -61 21 -138 82 -171 135 -59 96
-58 82 -58 1047 l0 883 2268 -2 2269 -3 35 -27z M6326 7085 c-34 -32 -36 -93
-3 -128 37 -40 181 -163 204 -176 57 -30 133 15 133 79 0 47 -10 60 -125 159
-93 81 -110 91 -144 91 -27 0 -46 -7 -65 -25z M5673 6875 c-100 -101 -103
-105 -103 -150 0 -36 6 -51 26 -72 22 -22 32 -25 66 -20 35 5 54 18 134 98 51
51 98 105 105 121 24 60 -22 128 -88 128 -35 0 -46 -8 -140 -105z M7007 6659
c-54 -56 -103 -113 -108 -127 -33 -85 72 -159 145 -101 14 11 62 61 106 110
67 74 80 94 80 123 0 48 -8 65 -41 81 -59 31 -77 23 -182 -86z M5143 6442
c-34 -26 -48 -75 -31 -108 14 -29 180 -155 236 -180 64 -28 127 16 126 89 -2
48 -14 60 -157 156 -97 66 -134 75 -174 43z M3618 6825 c-15 -9 -32 -24 -38
-35 -14 -26 -13 -83 3 -103 6 -9 66 -46 132 -82 150 -81 198 -85 233 -18 35
64 5 101 -145 186 -115 65 -146 74 -185 52z M2898 6773 c-34 -32 -83 -84 -109
-116 -40 -47 -49 -65 -49 -97 0 -30 6 -43 31 -64 55 -47 80 -38 186 67 113
111 137 145 128 187 -8 39 -58 80 -97 80 -22 0 -44 -14 -90 -57z M4242 6455
c-16 -14 -32 -36 -34 -49 -3 -13 5 -79 17 -147 19 -107 26 -126 49 -146 39
-33 90 -31 127 6 16 16 29 37 29 46 0 33 -41 251 -51 271 -24 47 -92 57 -137
19z M2283 6246 c-35 -30 -39 -95 -8 -125 36 -35 237 -151 262 -151 55 0 92 37
93 91 0 51 -18 69 -145 144 -123 73 -157 80 -202 41z M8979 6881 c-31 -32 -37
-70 -16 -108 7 -12 56 -62 109 -112 90 -84 101 -91 138 -91 57 0 90 34 90 91
0 41 -4 46 -96 133 -53 50 -106 96 -118 103 -37 21 -75 15 -107 -16z M8456
6629 c-14 -11 -62 -61 -106 -110 -69 -76 -80 -94 -80 -125 0 -26 8 -43 30 -66
47 -46 86 -36 168 44 102 100 142 155 142 194 0 74 -92 112 -154 63z M9753
6547 c-98 -98 -103 -105 -103 -145 0 -57 33 -92 86 -92 34 0 47 10 143 104
100 100 106 107 106 146 0 54 -38 90 -93 90 -32 0 -46 -10 -139 -103z M6265
5125 c-29 -28 -33 -79 -11 -111 22 -32 219 -182 248 -189 30 -8 82 16 98 44
14 26 12 82 -3 102 -7 9 -61 53 -120 97 -94 70 -114 82 -148 82 -29 0 -47 -7
-64 -25z M5588 4931 c-101 -103 -108 -113 -108 -150 0 -58 35 -96 89 -96 37 0
47 7 112 70 154 151 176 199 120 256 -22 22 -39 29 -68 29 -35 0 -46 -8 -145
-109z M7028 4773 c-113 -111 -120 -121 -120 -171 0 -28 7 -43 31 -64 43 -38
71 -35 128 13 70 61 158 151 171 176 33 61 -12 143 -79 143 -27 0 -47 -15
-131 -97z M5095 4433 c-11 -3 -30 -14 -42 -26 -29 -26 -32 -95 -5 -125 25 -29
228 -152 261 -158 67 -14 123 55 101 122 -9 25 -30 44 -98 86 -164 103 -179
110 -217 101z M3355 5065 c-33 -33 -34 -92 -2 -127 29 -31 274 -112 311 -102
37 9 68 48 69 87 2 64 -20 82 -157 126 -147 48 -187 51 -221 16z M2650 4933
c-35 -13 -209 -134 -229 -159 -30 -38 -27 -79 8 -115 49 -48 83 -41 206 41 57
38 111 80 119 92 33 46 9 118 -45 137 -35 12 -37 12 -59 4z M4165 4673 c-25
-6 -201 -178 -221 -215 -22 -42 -17 -76 15 -109 34 -33 78 -38 116 -13 13 8
64 60 114 115 95 104 107 131 80 181 -9 16 -70 51 -81 47 -2 -1 -12 -3 -23 -6z
M2068 4524 c-34 -18 -48 -43 -48 -85 0 -29 15 -48 108 -141 103 -103 110 -108
150 -108 34 0 48 6 67 26 25 27 33 76 17 101 -25 40 -180 195 -207 208 -40 18
-52 18 -87 -1z M8984 5062 c-61 -45 -183 -186 -190 -220 -13 -63 59 -126 117
-103 37 14 217 202 225 234 9 37 -13 85 -47 102 -40 21 -61 19 -105 -13z
M9695 4905 c-30 -30 -34 -92 -7 -123 26 -31 253 -152 285 -152 33 0 73 37 83
75 14 54 -14 85 -143 158 -136 76 -177 84 -218 42z M10409 4597 c-37 -17 -207
-200 -215 -231 -15 -63 24 -116 86 -116 46 0 72 20 181 141 62 69 72 85 73
119 1 67 -67 115 -125 87z M8313 4593 c-34 -6 -63 -50 -63 -95 0 -36 8 -46
109 -148 103 -104 111 -110 149 -110 59 0 97 35 97 89 0 39 -6 47 -110 150
-108 106 -134 123 -182 114z"/>
</g>
</svg>
