<?xml version="1.0" standalone="no"?>
<!DOCTYPE svg PUBLIC "-//W3C//DTD SVG 20010904//EN"
 "http://www.w3.org/TR/2001/REC-SVG-20010904/DTD/svg10.dtd">
<svg version="1.0" xmlns="http://www.w3.org/2000/svg"
 viewBox="0 0 1254 1254"
 preserveAspectRatio="xMidYMid meet">
<g transform="translate(0.000000,1254.000000) scale(0.100000,-0.100000)"
fill="currentColor" stroke="none">
<path d="M9520 10687 c-184 -63 -295 -186 -463 -514 -223 -436 -304 -736 -368
-1353 -26 -255 -51 -406 -85 -509 -36 -111 -57 -141 -93 -141 -50 0 -183 -47
-237 -84 l-51 -35 -74 56 c-243 180 -575 306 -901 342 -159 18 -444 14 -594
-8 -778 -115 -1521 -582 -2062 -1298 -207 -274 -380 -633 -466 -965 -57 -221
-70 -328 -70 -555 l0 -201 -67 -31 c-134 -62 -237 -159 -294 -275 l-27 -54
-86 -8 c-181 -15 -374 21 -762 141 -446 139 -682 194 -920 215 -392 36 -677
-77 -795 -315 -72 -145 -74 -308 -5 -476 43 -103 103 -181 244 -315 152 -146
214 -227 255 -333 41 -105 57 -180 71 -316 29 -300 48 -384 108 -499 43 -82
123 -171 192 -216 62 -40 121 -63 285 -110 305 -88 443 -199 622 -503 137
-231 293 -364 471 -398 88 -17 181 -6 258 30 120 56 206 159 304 364 122 255
192 528 255 997 37 281 72 452 118 590 l42 124 91 13 c139 18 235 61 323 143
l43 41 83 -50 c235 -145 532 -252 815 -296 146 -22 467 -31 626 -16 751 70
1532 530 2028 1195 368 494 546 990 546 1522 0 172 0 172 23 178 43 10 171
101 220 155 64 72 126 200 140 289 l11 71 65 7 c89 9 237 -2 362 -27 121 -25
240 -61 503 -154 332 -116 560 -162 758 -152 196 10 317 56 429 164 182 175
205 422 63 659 -19 32 -59 91 -88 129 -135 181 -179 288 -180 440 -1 95 2 107
45 230 58 163 71 226 71 340 -1 184 -56 320 -179 442 -65 64 -88 79 -246 157
-198 97 -264 143 -370 256 -89 95 -150 206 -203 371 -84 263 -183 404 -354
506 -108 65 -305 83 -430 40z m238 -272 c70 -21 149 -95 195 -182 19 -38 56
-129 82 -203 85 -242 159 -363 308 -507 111 -107 188 -158 378 -253 169 -85
214 -119 254 -191 28 -51 30 -60 30 -169 0 -106 -3 -122 -33 -205 -71 -190
-75 -211 -75 -350 -1 -233 67 -401 267 -665 92 -122 117 -219 77 -305 -51
-114 -206 -168 -421 -146 -138 15 -255 46 -605 161 -310 102 -407 130 -534
150 -76 13 -354 19 -426 10 -32 -4 -40 -2 -43 12 -2 11 10 23 35 36 21 10 155
78 298 149 266 134 504 245 748 349 138 59 181 88 198 132 33 86 -36 182 -130
182 -60 0 -609 -246 -1039 -466 -134 -68 -245 -124 -247 -124 -3 0 -12 11 -21
24 -15 24 -14 27 24 83 21 32 92 144 157 248 351 565 441 702 560 850 39 48
78 101 87 119 65 116 -69 245 -189 182 -72 -37 -290 -346 -568 -806 -128 -211
-268 -435 -281 -449 -3 -3 -9 0 -14 5 -7 7 -2 31 15 72 58 143 93 334 140 765
50 457 120 696 327 1107 138 274 196 350 296 386 49 17 88 17 150 -1z m-2910
-2290 c286 -189 685 -826 915 -1460 178 -493 297 -1056 297 -1413 0 -95 0 -95
-37 -141 -112 -138 -346 -357 -511 -479 -124 -91 -407 -262 -416 -251 -1 2
-15 92 -30 200 -137 990 -548 2063 -1088 2838 -75 107 -255 332 -278 346 -20
13 -9 24 73 73 273 165 542 261 907 326 59 10 111 -2 168 -39z m524 24 c267
-55 524 -181 715 -350 244 -216 422 -549 489 -914 23 -124 26 -487 6 -605 -17
-93 -62 -269 -98 -375 -27 -83 -151 -351 -158 -344 -2 2 -18 87 -35 189 -54
317 -116 563 -220 872 -203 605 -483 1115 -839 1531 -14 16 -13 17 12 17 15 0
73 -9 128 -21z m1287 -283 c81 -42 192 -182 272 -346 49 -100 62 -154 57 -237
-5 -85 -36 -151 -97 -204 -47 -41 -59 -47 -65 -26 -91 317 -184 512 -345 722
-54 70 -59 80 -44 89 74 42 142 42 222 2z m-3113 -338 c209 -221 508 -712 724
-1188 246 -546 423 -1134 515 -1720 21 -134 44 -343 39 -352 -7 -10 -119 -45
-234 -72 -323 -77 -622 -84 -940 -25 -147 27 -145 26 -159 101 -73 378 -232
896 -402 1308 -121 293 -383 784 -505 946 l-23 30 70 129 c127 233 312 470
538 688 174 167 272 247 292 237 8 -5 46 -42 85 -82z m-1032 -1398 c82 -135
263 -506 339 -695 122 -301 224 -612 294 -895 48 -197 52 -220 40 -220 -23 0
-193 98 -270 156 -188 141 -336 323 -448 549 -105 215 -139 361 -139 605 0
180 22 328 77 528 30 108 25 110 107 -28z m-333 -1135 c73 -177 199 -374 333
-524 l57 -63 -23 -25 c-35 -39 -96 -63 -159 -63 -48 0 -64 5 -105 33 -80 54
-284 339 -335 469 -48 123 -5 230 121 302 l45 26 12 -28 c7 -15 31 -72 54
-127z m-2221 124 c174 -21 484 -99 797 -199 140 -45 358 -102 468 -122 42 -8
148 -13 262 -13 134 0 193 -3 193 -11 0 -25 -506 -199 -960 -330 -342 -99
-367 -108 -391 -149 -29 -46 -26 -126 6 -164 32 -37 84 -55 133 -46 132 24
949 287 1196 384 71 28 132 51 136 51 4 0 13 -11 20 -25 12 -23 9 -29 -83
-125 -241 -253 -454 -560 -617 -887 -95 -192 -107 -230 -92 -282 18 -58 69
-95 133 -95 63 0 96 24 131 95 15 30 59 119 98 198 123 249 310 522 510 746
l94 106 43 -43 43 -43 -45 -130 c-63 -184 -99 -352 -145 -672 -47 -329 -53
-363 -90 -513 -39 -157 -92 -304 -154 -430 -65 -131 -90 -165 -142 -196 -47
-28 -89 -30 -142 -9 -91 38 -149 102 -258 281 -211 347 -401 499 -759 604
-175 51 -224 73 -269 119 -41 43 -81 119 -95 182 -6 25 -17 117 -26 205 -28
280 -72 444 -165 610 -36 65 -76 110 -221 254 -201 200 -231 245 -237 361 -9
151 64 237 238 283 66 18 269 20 390 5z"/>
</g>
</svg>
