<?xml version="1.0" standalone="no"?>
<!DOCTYPE svg PUBLIC "-//W3C//DTD SVG 20010904//EN"
 "http://www.w3.org/TR/2001/REC-SVG-20010904/DTD/svg10.dtd">
<svg version="1.0" xmlns="http://www.w3.org/2000/svg"
 viewBox="0 0 1254 1254"
 preserveAspectRatio="xMidYMid meet">
<g transform="translate(0.000000,1254.000000) scale(0.100000,-0.100000)"
fill="currentColor" stroke="none">
<path d="M1740 10104 c-142 -28 -264 -105 -343 -217 -24 -34 -252 -476 -507
-982 -255 -506 -552 -1097 -661 -1313 -212 -422 -229 -466 -229 -605 0 -91 29
-209 71 -288 54 -101 133 -175 321 -304 95 -65 202 -139 238 -165 188 -135
552 -378 600 -401 171 -82 365 -56 517 68 l43 34 237 -219 c131 -120 255 -234
277 -253 l38 -35 -55 -80 c-212 -312 -174 -700 92 -946 127 -117 281 -178 451
-178 l87 0 7 -77 c15 -184 68 -311 178 -428 162 -174 397 -255 623 -216 37 7
69 10 71 8 2 -2 13 -39 25 -83 55 -211 209 -380 410 -450 115 -40 287 -44 410
-8 12 3 19 -8 28 -51 27 -121 123 -265 233 -347 200 -152 468 -173 707 -55 40
20 97 62 151 112 47 44 98 91 112 104 l27 24 98 -99 c150 -151 286 -218 472
-230 260 -17 517 131 630 361 16 33 31 67 34 76 5 14 13 12 65 -13 136 -65
306 -85 457 -53 262 55 490 288 545 556 l11 57 47 -15 c62 -20 277 -23 352 -5
30 8 102 36 160 64 93 45 115 61 200 147 82 82 103 110 143 191 45 93 72 197
79 308 l3 42 120 4 c135 4 213 24 330 84 103 53 247 200 303 308 103 201 110
459 17 662 -14 30 -24 56 -23 57 25 16 588 431 747 550 l95 71 60 -32 c98 -52
166 -67 270 -62 66 4 108 12 153 31 34 14 273 167 545 348 536 359 594 406
661 536 64 122 85 288 52 412 -19 74 -56 151 -510 1071 -208 421 -437 887
-510 1035 -331 677 -310 638 -387 720 -128 137 -302 197 -472 162 -81 -17
-184 -69 -766 -384 -576 -313 -585 -318 -655 -415 -60 -80 -86 -167 -86 -280
l0 -87 -45 -20 c-148 -66 -345 -108 -452 -97 -118 12 -185 43 -477 219 -494
298 -629 372 -788 434 -151 58 -281 83 -462 90 -275 9 -470 -36 -730 -171
-134 -69 -142 -71 -180 -62 -22 5 -137 10 -255 10 -199 1 -223 -1 -325 -25
-171 -41 -286 -88 -620 -254 -325 -162 -427 -203 -572 -232 -130 -25 -320 -22
-453 6 -107 24 -346 103 -364 121 -5 5 -9 31 -7 57 3 66 -33 197 -72 261 -43
72 -120 141 -215 193 -42 23 -135 75 -207 114 -71 40 -247 136 -390 215 -143
78 -314 173 -380 210 -66 37 -142 74 -170 84 -50 17 -188 29 -235 20z m405
-562 c154 -86 321 -178 370 -205 50 -28 169 -92 265 -144 96 -51 185 -105 198
-119 42 -48 34 -72 -132 -392 -84 -164 -207 -394 -271 -512 -65 -118 -144
-262 -175 -320 -31 -58 -101 -186 -155 -285 -53 -99 -129 -238 -168 -310 -38
-71 -138 -256 -222 -410 -83 -154 -191 -353 -239 -442 -110 -203 -142 -236
-209 -219 -13 3 -99 58 -193 122 -93 64 -254 176 -359 247 -451 310 -455 313
-463 413 -4 53 -2 58 248 556 139 277 256 508 260 513 4 6 189 370 410 810
221 440 412 810 423 823 25 27 72 42 107 34 14 -3 151 -75 305 -160z m8671
126 c26 -23 57 -74 109 -183 126 -261 306 -627 707 -1435 215 -432 418 -841
452 -910 51 -105 61 -133 60 -177 0 -82 -30 -115 -206 -235 -639 -436 -803
-544 -832 -552 -38 -9 -89 18 -119 62 -13 20 -68 123 -122 227 -54 105 -133
255 -175 335 -43 80 -146 276 -230 435 -233 442 -410 777 -430 810 -10 17
-100 188 -200 380 -100 193 -206 396 -236 452 -61 115 -68 157 -31 197 12 13
173 105 357 205 184 99 434 234 555 300 254 138 277 145 341 89z m-3745 -518
c187 -38 256 -72 729 -355 195 -117 391 -231 435 -252 301 -151 548 -148 973
10 50 18 86 27 91 21 5 -5 60 -108 123 -229 64 -121 238 -452 388 -735 150
-283 358 -677 462 -875 105 -198 212 -401 239 -452 27 -50 49 -96 49 -101 0
-5 -72 -63 -161 -128 -89 -65 -261 -193 -383 -284 -121 -91 -242 -180 -268
-199 l-46 -33 -269 249 c-408 380 -708 644 -1093 958 -80 65 -174 144 -210
175 -103 89 -482 397 -755 614 -137 110 -279 223 -315 251 -160 127 -223 154
-377 162 -92 5 -111 3 -190 -22 -116 -35 -310 -136 -633 -330 -437 -262 -640
-368 -815 -427 -91 -30 -110 -33 -220 -33 -100 0 -127 4 -166 21 -176 81 -218
261 -102 436 72 108 176 203 614 559 64 52 165 134 225 184 537 442 786 627
959 712 236 117 477 151 716 103z m-1526 -209 c-3 -6 -114 -99 -247 -208 -610
-501 -777 -642 -894 -758 -109 -109 -167 -187 -220 -298 -131 -276 -56 -592
181 -767 207 -153 502 -182 815 -80 189 62 351 145 755 388 132 80 295 178
362 218 66 40 150 85 185 100 78 34 195 44 248 22 42 -18 318 -237 1030 -820
691 -566 957 -796 1451 -1257 397 -370 426 -405 450 -535 29 -160 -61 -335
-209 -404 -50 -24 -69 -27 -162 -27 -100 0 -108 2 -165 33 -33 18 -98 67 -145
109 -248 222 -574 515 -720 648 -289 261 -651 579 -683 600 -40 25 -129 26
-174 2 -87 -46 -120 -165 -69 -251 14 -25 35 -51 46 -59 11 -7 100 -86 197
-174 98 -88 295 -265 439 -394 406 -365 652 -588 706 -641 194 -189 113 -529
-149 -628 -49 -18 -73 -21 -153 -18 -164 7 -131 -20 -837 678 -639 631 -637
630 -716 630 -34 0 -94 -30 -124 -62 -44 -47 -56 -128 -29 -192 9 -22 211
-229 543 -560 363 -360 538 -541 556 -573 95 -177 17 -403 -171 -491 -48 -23
-71 -27 -142 -27 -127 0 -176 28 -365 206 -280 265 -629 586 -770 708 -186
162 -277 206 -467 226 l-58 6 0 72 c0 164 -69 328 -184 442 -123 121 -271 184
-444 188 l-87 2 -3 65 c-4 93 -26 173 -74 270 -56 115 -178 239 -288 292 -145
71 -302 94 -448 64 -45 -9 -88 -19 -96 -22 -9 -4 -17 12 -26 58 -50 258 -256
472 -518 539 -152 39 -344 19 -478 -49 -96 -49 -141 -87 -368 -307 -119 -115
-220 -211 -224 -213 -4 -1 -55 42 -113 95 -525 489 -500 463 -487 486 58 111
491 912 703 1302 164 300 354 654 417 774 56 107 128 243 133 249 1 1 49 -16
108 -38 300 -112 582 -151 850 -115 240 32 413 94 771 279 247 128 340 167
471 202 50 12 91 23 93 24 2 0 1 -4 -3 -9z m-1918 -3053 c69 -26 147 -100 183
-173 20 -41 24 -66 25 -141 0 -151 -6 -160 -421 -577 -375 -377 -404 -401
-510 -415 -199 -26 -358 87 -395 281 -12 66 2 143 41 223 26 53 78 108 381
405 194 189 361 350 372 358 87 62 221 78 324 39z m946 -591 c63 -29 120 -85
155 -152 23 -43 27 -63 27 -135 0 -151 4 -146 -498 -655 -485 -492 -485 -492
-621 -502 -141 -11 -251 48 -316 168 -33 60 -35 70 -35 154 0 157 -5 150 492
651 445 448 473 472 575 494 66 14 163 4 221 -23z m739 -685 c150 -66 213
-252 138 -406 -31 -65 -790 -843 -852 -874 -121 -60 -246 -47 -347 36 -65 53
-96 126 -96 227 0 132 10 145 446 588 378 384 425 425 513 448 49 13 148 3
198 -19z m675 -710 c54 -28 106 -80 135 -135 32 -60 32 -181 0 -253 -33 -73
-624 -663 -696 -695 -113 -50 -238 -31 -326 48 -69 62 -94 119 -95 213 0 124
13 142 337 470 304 307 331 331 405 361 65 26 180 22 240 -9z m777 -672 c108
-120 46 -332 -120 -415 -49 -24 -72 -29 -134 -29 -105 -1 -167 29 -276 136
l-84 81 114 117 c131 135 179 213 222 359 4 13 199 -162 278 -249z M1106 7480
c-164 -28 -285 -155 -317 -331 -29 -161 62 -328 219 -402 61 -29 76 -32 167
-32 89 0 107 3 160 28 96 45 176 133 209 232 24 71 22 187 -4 258 -65 172
-250 278 -434 247z m152 -250 c48 -29 72 -75 72 -137 0 -47 -4 -58 -36 -93
-63 -70 -152 -78 -219 -19 -78 69 -69 197 20 250 41 26 120 25 163 -1z M11300
7479 c-119 -20 -232 -104 -287 -216 -25 -53 -28 -68 -28 -163 0 -99 2 -110 33
-172 38 -78 110 -149 192 -187 48 -23 68 -26 160 -26 96 0 110 3 165 29 233
115 296 424 124 611 -92 100 -224 146 -359 124z m151 -252 c19 -12 44 -42 57
-67 27 -53 23 -96 -13 -151 -44 -67 -151 -88 -215 -41 -30 22 -70 97 -70 132
0 43 42 112 80 132 49 25 119 24 161 -5z"/>
</g>
</svg>
