<?xml version="1.0" standalone="no"?>
<!DOCTYPE svg PUBLIC "-//W3C//DTD SVG 20010904//EN"
 "http://www.w3.org/TR/2001/REC-SVG-20010904/DTD/svg10.dtd">
<svg version="1.0" xmlns="http://www.w3.org/2000/svg"
 viewBox="0 0 1254 1254"
 preserveAspectRatio="xMidYMid meet">
<g transform="translate(0.000000,1254.000000) scale(0.100000,-0.100000)"
fill="currentColor" stroke="none">
<path d="M6105 11759 c-666 -62 -1253 -326 -1709 -769 -377 -366 -611 -758
-752 -1259 -3 -10 -16 -12 -49 -8 -40 6 -101 -1 -160 -18 -17 -5 -43 22 -155
162 -157 198 -417 462 -541 551 -198 141 -351 196 -478 172 -80 -15 -153 -52
-212 -107 -99 -92 -147 -200 -156 -354 -7 -118 5 -191 54 -312 19 -49 33 -90
31 -91 -1 -1 -48 -33 -103 -71 -140 -96 -259 -218 -313 -321 -103 -200 -108
-427 -14 -626 70 -148 158 -245 322 -355 106 -71 106 -71 77 -130 -50 -98 -62
-152 -62 -268 0 -89 5 -123 23 -178 97 -281 361 -383 637 -245 165 83 330 213
532 419 117 120 261 280 304 339 21 28 22 28 58 12 22 -10 68 -16 120 -17 l84
-1 47 -134 c84 -240 171 -419 298 -612 325 -493 750 -839 1287 -1051 168 -66
252 -91 421 -126 l129 -26 5 -2615 5 -2615 22 -55 c47 -113 140 -203 262 -252
45 -18 76 -23 156 -23 94 1 105 3 176 36 92 44 141 86 191 164 75 115 69 -125
71 2761 l2 2598 35 8 c188 39 255 57 382 99 472 156 853 412 1192 799 244 279
412 569 531 920 l42 125 64 -3 c38 -2 84 3 114 12 28 9 53 16 57 16 3 0 62
-64 129 -142 345 -398 643 -634 868 -688 85 -20 200 -8 275 29 144 71 235 214
252 395 9 96 -7 183 -53 292 -32 77 -34 88 -21 98 9 6 58 40 110 76 112 78
185 151 249 248 138 210 156 465 49 687 -67 139 -175 251 -357 371 l-82 54 35
73 c112 236 74 522 -89 673 -145 135 -307 155 -498 63 -226 -109 -462 -323
-735 -667 -65 -81 -123 -153 -130 -161 -10 -11 -19 -11 -49 -1 -20 7 -70 13
-111 14 l-74 1 -56 165 c-89 265 -256 586 -415 797 -291 390 -697 703 -1148
888 -195 80 -428 142 -641 170 -138 19 -410 26 -535 14z m580 -288 c138 -25
317 -70 389 -99 l50 -19 -70 -23 c-509 -167 -873 -472 -1080 -904 -103 -217
-136 -352 -142 -596 -6 -266 26 -427 124 -622 l43 -86 -57 13 c-185 44 -382
168 -534 338 -176 196 -297 429 -357 687 -76 329 -41 681 97 955 56 113 87
152 140 176 209 94 482 169 722 198 41 5 183 8 315 7 193 -3 264 -8 360 -25z
m921 -362 c302 -197 576 -480 764 -789 98 -161 253 -500 236 -517 -2 -2 -34
14 -70 36 -321 197 -678 293 -1036 278 -253 -11 -440 -57 -658 -164 -277 -135
-480 -329 -608 -581 l-43 -84 -21 34 c-30 50 -70 176 -86 275 -83 515 191
1047 695 1346 195 116 503 213 687 216 58 1 66 -2 140 -50z m-2776 -135 c-10
-33 -28 -118 -40 -190 -19 -113 -21 -154 -17 -334 5 -225 22 -327 79 -495 45
-131 70 -188 138 -316 200 -371 528 -645 884 -738 44 -12 81 -23 83 -25 2 -2
-19 -18 -46 -36 -163 -104 -464 -171 -700 -156 -390 25 -754 192 -1009 461
-109 115 -173 206 -238 339 -82 170 -83 179 -34 327 23 68 77 196 119 284 130
265 280 473 497 687 98 97 293 261 301 254 1 -1 -6 -29 -17 -62z m-2413 -648
c200 -93 479 -357 752 -712 l63 -82 -34 -86 c-29 -77 -35 -86 -55 -81 -12 3
-109 39 -215 81 -276 109 -375 144 -404 144 -90 0 -144 -106 -95 -186 21 -34
26 -36 504 -220 l177 -68 0 -96 0 -97 -335 -132 c-371 -147 -370 -146 -370
-232 0 -39 5 -53 29 -78 33 -35 82 -48 123 -33 16 6 123 47 238 92 116 45 242
94 282 110 l71 28 17 -52 c9 -28 27 -71 41 -94 l24 -44 -77 -91 c-333 -392
-649 -656 -819 -683 -94 -14 -181 61 -203 176 -16 81 -2 150 53 255 34 66 41
90 41 135 -1 98 -50 161 -212 270 -118 79 -196 163 -242 260 -35 73 -36 78
-36 195 0 116 1 123 33 188 45 91 132 181 255 266 165 112 225 190 214 281 -3
25 -24 83 -46 130 -53 110 -68 191 -52 279 18 98 61 161 131 193 32 14 97 7
147 -16z m7874 2 c49 -27 88 -83 106 -150 25 -99 12 -176 -53 -319 -48 -104
-54 -147 -29 -206 27 -65 61 -98 184 -182 143 -98 231 -188 275 -280 29 -63
31 -72 31 -187 0 -119 0 -121 -38 -196 -46 -94 -118 -169 -253 -265 -117 -84
-156 -122 -183 -183 -32 -70 -27 -111 23 -209 74 -145 79 -251 18 -351 -30
-49 -95 -90 -144 -90 -46 0 -133 38 -225 99 -193 127 -377 303 -639 613 l-51
61 33 76 c19 42 34 84 34 94 0 9 5 17 11 17 6 0 143 -52 306 -115 162 -63 308
-115 323 -115 64 0 131 84 116 146 -13 51 -56 79 -221 143 -330 129 -460 181
-472 189 -7 5 -12 42 -14 102 l-2 95 94 36 c605 231 572 217 594 259 43 82
-13 180 -102 180 -15 0 -154 -49 -308 -109 -154 -60 -291 -112 -305 -115 -23
-6 -27 -1 -58 74 -19 44 -32 87 -29 94 3 7 61 82 128 167 147 183 412 451 525
532 166 117 245 140 325 95z m-2580 -458 c205 -20 356 -63 547 -157 154 -75
298 -178 395 -283 63 -68 66 -73 74 -138 15 -125 9 -526 -11 -652 -33 -220
-105 -463 -190 -645 -72 -153 -235 -424 -257 -425 -3 0 -9 64 -12 143 -9 230
-64 449 -162 653 -210 435 -579 744 -1030 861 -102 26 -123 28 -300 28 -151
-1 -204 -4 -258 -19 -38 -10 -71 -15 -74 -12 -3 3 14 40 38 83 58 101 215 266
324 338 265 177 591 257 916 225z m-4128 -397 c3 -5 -2 -51 -10 -103 -21 -133
-22 -597 -1 -735 8 -55 13 -102 11 -104 -2 -3 -20 -5 -40 -5 -69 0 -132 98
-171 269 -23 103 -20 326 7 428 42 162 105 257 171 257 16 0 31 -3 33 -7z
m5474 -25 c35 -33 80 -132 105 -234 16 -69 21 -119 21 -219 0 -150 -18 -246
-64 -347 -36 -76 -72 -115 -114 -123 -52 -10 -55 -1 -37 120 22 151 21 569 -1
715 -8 57 -13 108 -10 113 9 15 74 -1 100 -25z m-5177 -298 c259 -363 663
-608 1140 -691 112 -20 433 -17 545 4 209 39 374 104 515 201 l80 55 0 -32 c0
-44 -34 -179 -64 -255 -60 -152 -140 -274 -265 -405 -201 -210 -450 -351 -745
-422 -280 -66 -552 -54 -801 36 -100 36 -102 39 -199 214 -139 251 -230 536
-271 848 -15 117 -21 469 -9 515 8 27 4 30 74 -68z m3131 -163 c240 -63 425
-170 599 -348 191 -194 319 -440 381 -729 31 -142 33 -425 5 -575 -18 -99 -19
-101 -70 -149 -176 -169 -428 -332 -682 -441 -247 -107 -457 -158 -774 -189
l-54 -6 75 78 c239 244 386 541 450 908 30 175 30 445 0 615 -55 316 -195 602
-388 795 -19 19 -32 38 -29 41 18 18 143 32 261 29 99 -3 153 -9 226 -29z
m-521 -343 c240 -348 298 -882 144 -1332 -108 -314 -335 -590 -594 -722 -54
-28 -92 -28 -245 0 -376 68 -753 240 -1059 484 -103 82 -283 252 -275 260 3 3
45 1 94 -4 508 -54 1011 113 1386 459 261 241 436 574 456 869 6 88 7 92 24
76 10 -9 41 -49 69 -90z m-20 -4901 c0 -2478 -1 -2569 -19 -2608 -36 -78 -95
-115 -182 -115 -78 0 -143 41 -180 112 -19 36 -19 101 -19 2608 l0 2570 200 0
200 0 0 -2567z"/>
</g>
</svg>
