<?xml version="1.0" standalone="no"?>
<!DOCTYPE svg PUBLIC "-//W3C//DTD SVG 20010904//EN"
 "http://www.w3.org/TR/2001/REC-SVG-20010904/DTD/svg10.dtd">
<svg version="1.0" xmlns="http://www.w3.org/2000/svg"
 viewBox="0 0 1254 1254"
 preserveAspectRatio="xMidYMid meet">
<g transform="translate(0.000000,1254.000000) scale(0.100000,-0.100000)"
fill="currentColor" stroke="none">
<path d="M2946 11649 c-138 -20 -268 -117 -329 -246 -26 -57 -32 -83 -35 -158
-5 -115 9 -174 87 -347 160 -360 159 -357 191 -518 36 -183 76 -329 136 -497
l43 -122 -20 -63 c-21 -71 -50 -213 -73 -363 -23 -143 -41 -345 -76 -822 -68
-939 -117 -1307 -234 -1773 -61 -240 -93 -338 -201 -605 -130 -322 -174 -465
-234 -745 -92 -427 -128 -879 -111 -1380 15 -433 46 -672 132 -1015 80 -321
201 -620 385 -949 67 -119 76 -76 -84 -411 -136 -283 -146 -314 -141 -404 9
-166 141 -308 317 -341 69 -13 263 -13 332 0 69 13 164 59 313 149 156 96 167
97 276 30 47 -29 121 -74 165 -101 110 -67 196 -92 294 -85 106 7 168 32 338
135 81 50 164 93 183 97 41 7 62 -3 250 -119 156 -96 231 -121 339 -113 106 7
171 33 330 131 160 99 183 109 225 100 17 -4 99 -48 181 -99 83 -50 170 -99
195 -109 61 -24 166 -31 242 -16 74 14 120 36 297 143 170 104 173 104 312 18
57 -36 129 -80 159 -98 86 -53 177 -77 269 -70 107 8 174 34 334 133 77 48
157 91 179 97 46 11 79 -3 278 -126 168 -103 256 -125 392 -96 67 14 141 52
293 147 163 102 160 102 346 -11 213 -129 244 -139 414 -145 80 -2 165 1 199
7 129 24 242 104 293 210 25 49 28 68 28 151 l0 95 -74 155 c-95 199 -201 430
-201 440 0 4 35 69 77 146 233 422 371 828 442 1305 30 202 40 309 52 595 20
492 -18 969 -110 1399 -63 289 -109 437 -229 735 -103 255 -127 322 -176 502
-134 491 -192 894 -251 1738 -48 692 -64 856 -111 1108 -13 74 -33 166 -44
205 -26 93 -26 96 14 203 47 124 112 362 141 519 27 145 21 129 150 420 119
268 128 301 123 424 -4 77 -10 108 -32 155 -72 161 -223 257 -401 258 -135 1
-162 -10 -439 -185 -227 -144 -206 -144 -439 8 -97 63 -191 122 -208 131 -101
52 -239 62 -355 26 -54 -16 -116 -51 -255 -143 -101 -67 -201 -126 -221 -131
-56 -12 -92 5 -281 130 -228 150 -321 183 -465 162 -97 -14 -153 -41 -343
-166 -177 -117 -220 -137 -271 -127 -47 9 -70 22 -249 140 -88 58 -184 114
-212 125 -119 46 -260 42 -372 -11 -33 -15 -135 -77 -226 -138 -168 -112 -211
-130 -266 -114 -16 5 -102 57 -193 116 -198 130 -262 161 -356 174 -144 21
-229 -8 -459 -156 -176 -113 -195 -123 -244 -123 -46 0 -106 30 -291 145 -140
88 -212 120 -285 130 -27 3 -59 7 -70 9 -11 2 -47 -1 -79 -5z m243 -431 c284
-172 306 -182 409 -198 152 -24 255 11 501 170 156 101 191 116 243 106 18 -3
116 -60 217 -126 231 -151 263 -164 401 -164 137 0 164 11 403 164 104 65 204
122 222 126 54 10 96 -9 284 -131 99 -64 204 -126 233 -137 76 -29 188 -34
281 -14 77 17 150 58 377 210 97 64 143 81 193 72 19 -4 106 -53 193 -109 88
-57 179 -115 204 -130 95 -55 228 -71 343 -41 79 20 89 26 298 160 190 122
229 137 290 111 18 -8 110 -64 204 -126 185 -122 247 -150 346 -158 121 -10
197 15 377 124 86 53 183 111 215 131 70 42 127 47 160 13 38 -37 28 -80 -65
-291 -48 -107 -98 -221 -112 -253 l-25 -57 -3111 2 -3110 3 -64 140 c-34 77
-84 188 -109 246 -62 139 -63 199 -4 224 44 18 86 5 206 -67z m6121 -911 c0
-17 -36 -146 -66 -239 l-26 -78 -2948 0 -2948 0 -21 63 c-21 64 -71 246 -71
260 0 4 1368 7 3040 7 2451 0 3040 -2 3040 -13z m-141 -663 c13 -12 48 -154
71 -283 27 -155 57 -425 75 -686 64 -954 107 -1333 199 -1780 69 -335 134
-545 281 -910 51 -126 107 -273 124 -325 66 -203 136 -558 166 -850 33 -309
30 -883 -6 -1205 -51 -458 -175 -883 -361 -1235 -128 -240 -169 -308 -191
-313 -120 -30 -814 -87 -1352 -112 -1022 -47 -2849 -45 -3860 5 -475 24 -1029
65 -1228 91 -104 14 -86 -7 -221 249 -204 384 -325 751 -385 1165 -63 430 -67
1044 -10 1480 55 425 124 685 278 1057 103 249 160 422 226 688 115 465 172
885 230 1675 46 646 70 881 106 1060 22 107 46 200 60 226 8 15 238 16 2899
15 1780 -2 2894 -6 2899 -12z m-6009 -7934 c805 -78 2137 -118 3540 -107 1234
10 1902 37 2657 107 117 11 219 20 227 20 7 0 24 -24 36 -52 12 -29 47 -105
77 -168 122 -253 125 -262 109 -279 -20 -20 -172 -27 -241 -12 -33 7 -97 39
-173 86 -169 104 -210 123 -291 136 -128 21 -195 -1 -409 -136 -134 -84 -159
-95 -208 -95 -48 0 -80 15 -229 109 -163 102 -217 124 -315 125 -99 1 -148
-17 -301 -111 -180 -111 -206 -123 -258 -123 -57 0 -96 18 -239 109 -150 95
-178 108 -255 122 -53 10 -78 10 -124 -1 -69 -15 -83 -22 -233 -113 -151 -91
-206 -117 -257 -117 -58 0 -75 8 -239 110 -177 112 -205 123 -314 123 -101 0
-115 -5 -293 -112 -180 -107 -209 -121 -259 -121 -55 0 -94 19 -251 118 -151
95 -206 117 -302 116 -95 0 -149 -21 -306 -115 -196 -119 -204 -122 -265 -117
-43 4 -69 15 -136 58 -249 159 -319 188 -432 175 -91 -10 -139 -30 -295 -123
-175 -103 -212 -116 -337 -110 -145 6 -144 -7 -19 258 59 123 111 232 116 243
9 15 18 17 62 13 29 -3 99 -10 157 -16z M4773 9222 c-149 -53 -242 -184 -304
-429 -53 -211 -64 -313 -63 -598 0 -143 5 -287 11 -319 l10 -59 -64 -98 c-121
-185 -197 -366 -248 -594 l-22 -100 -139 3 c-132 3 -141 2 -173 -20 -77 -53
-98 -122 -59 -198 36 -70 69 -83 219 -90 70 -3 129 -8 132 -10 6 -8 38 -292
33 -297 -2 -2 -51 -15 -108 -28 -133 -31 -187 -50 -216 -78 -76 -71 -66 -184
20 -237 41 -25 94 -25 183 -1 39 11 97 24 130 31 33 6 67 13 75 16 10 2 21
-11 33 -41 11 -25 49 -91 87 -148 279 -422 761 -673 1474 -764 186 -24 784
-24 972 0 582 74 992 244 1280 531 128 128 193 214 258 337 l46 87 83 -18 c45
-10 110 -25 143 -34 82 -21 132 -20 172 4 51 31 74 76 69 136 -7 99 -55 133
-256 178 -62 13 -115 27 -118 30 -3 3 2 54 11 115 9 60 16 126 16 145 0 20 1
36 3 37 1 0 61 4 133 8 155 9 187 22 222 91 27 54 27 82 3 137 -14 30 -31 48
-62 63 -38 20 -55 22 -177 18 l-135 -3 -19 95 c-42 212 -123 403 -254 607
l-56 88 11 110 c26 258 9 584 -43 815 -74 328 -203 484 -412 498 -133 8 -236
-32 -405 -157 -166 -123 -352 -299 -495 -465 l-50 -59 -115 14 c-146 18 -548
18 -689 1 l-104 -14 -60 69 c-102 118 -310 318 -419 405 -190 151 -292 199
-427 205 -64 3 -98 -1 -137 -15z m191 -347 c136 -73 417 -331 562 -519 88
-113 138 -156 186 -156 14 0 77 9 140 19 279 48 557 48 833 0 61 -10 124 -19
140 -19 49 0 99 40 176 140 88 115 323 352 439 442 91 71 172 118 201 118 90
0 187 -500 159 -823 -6 -66 -20 -159 -31 -206 -26 -109 -21 -127 71 -251 74
-101 155 -246 196 -357 21 -55 74 -252 74 -274 0 -3 -26 -12 -57 -19 -108 -23
-289 -79 -356 -109 -71 -32 -101 -66 -113 -127 -9 -51 26 -118 75 -143 53 -27
92 -26 182 5 88 30 271 76 277 69 6 -5 -16 -167 -25 -190 -4 -13 -31 -14 -183
-9 -170 7 -179 6 -223 -15 -34 -17 -51 -33 -66 -65 -26 -52 -26 -69 -2 -123
29 -64 69 -79 226 -88 72 -4 132 -9 134 -11 11 -11 -118 -180 -192 -251 -292
-280 -731 -430 -1325 -451 -809 -30 -1360 116 -1708 450 -71 69 -204 242 -193
253 2 2 64 7 137 11 152 8 185 20 219 80 28 49 29 84 2 135 -15 30 -32 46 -67
61 -43 19 -59 21 -223 15 l-177 -6 -11 47 c-5 26 -13 72 -16 103 l-6 56 52 -9
c29 -5 110 -27 180 -49 142 -43 175 -47 226 -22 48 22 73 66 73 128 0 59 -25
107 -68 129 -51 27 -255 93 -354 115 -90 21 -98 24 -93 44 59 273 138 449 287
646 70 93 75 118 47 227 -22 82 -24 109 -24 329 0 251 6 305 51 488 35 142 68
207 104 207 9 0 38 -11 64 -25z M5360 7387 c-56 -18 -116 -86 -136 -153 -35
-123 12 -239 121 -297 60 -32 165 -30 225 3 95 53 145 167 121 274 -15 66 -75
140 -136 167 -45 21 -139 24 -195 6z M6990 7384 c-130 -56 -183 -217 -115
-343 81 -149 274 -173 392 -49 44 45 63 96 63 168 0 106 -66 201 -159 228 -53
16 -139 14 -181 -4z M6034 6855 c-68 -41 -92 -119 -58 -191 9 -19 52 -63 95
-99 l79 -66 0 -56 c0 -82 -17 -128 -66 -172 -65 -61 -137 -75 -209 -42 -51 23
-68 43 -99 113 -41 93 -110 127 -183 92 -79 -39 -90 -123 -33 -240 40 -81 137
-174 217 -205 49 -20 76 -24 173 -24 104 0 120 3 174 28 32 15 79 43 106 62
47 35 47 35 66 14 10 -11 56 -39 103 -62 l84 -42 116 0 c110 0 120 2 183 32
139 66 233 195 233 320 0 57 -3 65 -33 95 -28 28 -39 33 -81 33 -55 0 -98 -24
-117 -66 -47 -101 -60 -121 -91 -140 -71 -44 -163 -34 -230 24 -48 42 -63 82
-63 170 l0 73 71 58 c86 71 109 106 109 167 0 56 -29 104 -80 130 -30 17 -59
19 -230 19 -190 0 -196 -1 -236 -25z M7828 5104 c-81 -19 -167 -65 -221 -117
-87 -85 -143 -240 -131 -363 6 -61 6 -61 -27 -82 -56 -35 -116 -103 -150 -172
-63 -127 -50 -303 31 -429 115 -177 340 -251 557 -183 l61 19 170 -105 169
-105 11 -61 c26 -136 118 -258 241 -319 63 -31 71 -32 186 -32 115 0 123 1
190 33 155 73 245 216 245 389 0 60 1 63 32 79 41 21 132 108 158 150 80 129
82 334 4 459 -61 97 -126 149 -232 184 -81 28 -191 28 -292 0 l-77 -20 -140
89 c-237 151 -215 130 -235 224 -23 108 -55 171 -118 235 -62 62 -144 107
-231 128 -77 18 -126 18 -201 -1z m175 -305 c67 -34 90 -77 106 -193 6 -40 17
-77 28 -89 18 -20 266 -186 469 -313 118 -74 140 -78 254 -39 40 14 89 25 107
25 139 0 210 -167 115 -270 -15 -17 -56 -45 -92 -64 -97 -50 -106 -66 -102
-194 2 -95 0 -112 -20 -152 -45 -88 -157 -114 -235 -54 -44 34 -61 69 -73 155
-6 39 -18 85 -28 101 -11 20 -74 65 -187 136 -93 58 -211 132 -261 164 -105
67 -129 71 -221 33 -81 -32 -130 -39 -180 -26 -115 31 -159 178 -81 267 17 19
56 49 87 67 31 19 67 49 79 68 21 31 23 40 15 94 -4 33 -8 90 -8 127 1 75 16
106 75 146 37 25 115 30 153 11z M5215 4953 c-16 -2 -74 -15 -129 -29 -364
-91 -661 -340 -836 -702 -33 -70 -48 -91 -60 -86 -50 20 -178 45 -276 55 -118
12 -252 3 -327 -24 -181 -63 -228 -258 -115 -480 17 -36 63 -94 114 -147 l84
-87 0 -89 c0 -170 54 -347 135 -441 50 -59 124 -93 201 -93 51 0 74 6 135 37
97 48 264 214 364 361 69 102 70 103 105 98 139 -20 248 -27 335 -21 339 22
620 150 860 390 123 123 211 245 281 390 120 248 125 426 16 570 -135 178
-459 308 -756 304 -56 -1 -114 -4 -131 -6z m375 -323 c107 -30 232 -93 269
-135 39 -45 41 -97 7 -188 -122 -325 -398 -591 -706 -682 -133 -40 -337 -47
-540 -20 -118 15 -163 11 -197 -17 -9 -7 -43 -53 -76 -103 -134 -200 -281
-365 -325 -365 -42 0 -72 133 -72 317 0 145 -8 167 -75 213 -109 75 -185 171
-185 234 0 21 6 26 36 32 82 15 274 -14 440 -67 176 -56 199 -44 304 167 97
194 141 257 264 379 140 138 284 218 451 249 111 21 305 15 405 -14z M6550
3779 c-182 -30 -322 -174 -352 -361 l-12 -74 -57 -27 c-323 -152 -332 -616
-15 -773 113 -56 220 -64 358 -27 l57 15 105 -68 c105 -67 105 -68 116 -118
26 -128 112 -239 228 -297 64 -33 71 -34 182 -34 108 0 119 2 180 31 80 38
157 107 192 171 24 42 46 114 63 195 3 19 20 34 57 56 72 40 143 119 181 200
30 62 32 75 32 172 0 93 -3 112 -27 163 -74 158 -212 248 -383 248 -44 1 -101
-5 -126 -11 l-46 -12 -101 67 c-93 61 -102 69 -107 103 -32 208 -168 350 -365
382 -74 11 -84 11 -160 -1z m145 -278 c74 -34 105 -85 105 -172 0 -92 9 -102
224 -246 108 -73 207 -133 219 -133 12 0 60 9 107 21 98 26 144 21 189 -16 43
-37 64 -89 57 -139 -11 -66 -46 -108 -124 -149 -102 -54 -142 -111 -142 -203
0 -79 -48 -154 -114 -179 -56 -22 -104 -14 -147 22 -39 34 -56 71 -65 151 -4
37 -14 73 -25 86 -22 28 -383 260 -419 270 -16 4 -62 -5 -126 -25 -113 -35
-148 -34 -205 4 -47 31 -71 78 -71 137 0 88 50 140 185 190 85 32 107 65 117
183 11 129 37 174 117 203 51 18 71 17 118 -5z"/>
</g>
</svg>
